<svg id="visual" viewBox="0 0 7680 4320" width="7680" height="4320" xmlns="http://www.w3.org/2000/svg" xmlns:xlink="http://www.w3.org/1999/xlink" version="1.1"><path d="M0 303L142.2 331.8C284.3 360.7 568.7 418.3 853.2 404C1137.7 389.7 1422.3 303.3 1706.8 296.2C1991.3 289 2275.7 361 2560 397C2844.3 433 3128.7 433 3413.2 375.3C3697.7 317.7 3982.3 202.3 4266.8 209.5C4551.3 216.7 4835.7 346.3 5120 418.3C5404.3 490.3 5688.7 504.7 5973.2 526.3C6257.7 548 6542.3 577 6826.8 519.5C7111.3 462 7395.7 318 7537.8 246L7680 174L7680 0L7537.8 0C7395.7 0 7111.3 0 6826.8 0C6542.3 0 6257.7 0 5973.2 0C5688.7 0 5404.3 0 5120 0C4835.7 0 4551.3 0 4266.8 0C3982.3 0 3697.7 0 3413.2 0C3128.7 0 2844.3 0 2560 0C2275.7 0 1991.3 0 1706.8 0C1422.3 0 1137.7 0 853.2 0C568.7 0 284.3 0 142.2 0L0 0Z" fill="#6198ff"></path><path d="M0 563L142.2 591.7C284.3 620.3 568.7 677.7 853.2 648.8C1137.7 620 1422.3 505 1706.8 512.3C1991.3 519.7 2275.7 649.3 2560 692.5C2844.3 735.7 3128.7 692.3 3413.2 598.7C3697.7 505 3982.3 361 4266.8 375.3C4551.3 389.7 4835.7 562.3 5120 699.2C5404.3 836 5688.7 937 5973.2 929.8C6257.7 922.7 6542.3 807.3 6826.8 677.7C7111.3 548 7395.7 404 7537.8 332L7680 260L7680 172L7537.8 244C7395.7 316 7111.3 460 6826.8 517.5C6542.3 575 6257.7 546 5973.2 524.3C5688.7 502.7 5404.3 488.3 5120 416.3C4835.7 344.3 4551.3 214.7 4266.8 207.5C3982.3 200.3 3697.7 315.7 3413.2 373.3C3128.7 431 2844.3 431 2560 395C2275.7 359 1991.3 287 1706.8 294.2C1422.3 301.3 1137.7 387.7 853.2 402C568.7 416.3 284.3 358.7 142.2 329.8L0 301Z" fill="#4c8aff"></path><path d="M0 1081L142.2 1109.8C284.3 1138.7 568.7 1196.3 853.2 1153.2C1137.7 1110 1422.3 966 1706.8 951.5C1991.3 937 2275.7 1052 2560 1059.2C2844.3 1066.3 3128.7 965.7 3413.2 929.7C3697.7 893.7 3982.3 922.3 4266.8 936.7C4551.3 951 4835.7 951 5120 1015.8C5404.3 1080.7 5688.7 1210.3 5973.2 1246.3C6257.7 1282.3 6542.3 1224.7 6826.8 1167.2C7111.3 1109.7 7395.7 1052.3 7537.8 1023.7L7680 995L7680 258L7537.8 330C7395.7 402 7111.3 546 6826.8 675.7C6542.3 805.3 6257.7 920.7 5973.2 927.8C5688.7 935 5404.3 834 5120 697.2C4835.7 560.3 4551.3 387.7 4266.8 373.3C3982.3 359 3697.7 503 3413.2 596.7C3128.7 690.3 2844.3 733.7 2560 690.5C2275.7 647.3 1991.3 517.7 1706.8 510.3C1422.3 503 1137.7 618 853.2 646.8C568.7 675.7 284.3 618.3 142.2 589.7L0 561Z" fill="#367cff"></path><path d="M0 1686L142.2 1700.3C284.3 1714.7 568.7 1743.3 853.2 1664.2C1137.7 1585 1422.3 1398 1706.8 1354.8C1991.3 1311.7 2275.7 1412.3 2560 1462.7C2844.3 1513 3128.7 1513 3413.2 1441C3697.7 1369 3982.3 1225 4266.8 1160.2C4551.3 1095.3 4835.7 1109.7 5120 1246.5C5404.3 1383.3 5688.7 1642.7 5973.2 1750.7C6257.7 1858.7 6542.3 1815.3 6826.8 1721.7C7111.3 1628 7395.7 1484 7537.8 1412L7680 1340L7680 993L7537.8 1021.7C7395.7 1050.3 7111.3 1107.7 6826.8 1165.2C6542.3 1222.7 6257.7 1280.3 5973.2 1244.3C5688.7 1208.3 5404.3 1078.7 5120 1013.8C4835.7 949 4551.3 949 4266.8 934.7C3982.3 920.3 3697.7 891.7 3413.2 927.7C3128.7 963.7 2844.3 1064.3 2560 1057.2C2275.7 1050 1991.3 935 1706.8 949.5C1422.3 964 1137.7 1108 853.2 1151.2C568.7 1194.3 284.3 1136.7 142.2 1107.8L0 1079Z" fill="#196eff"></path><path d="M0 1902L142.2 1938C284.3 1974 568.7 2046 853.2 2010C1137.7 1974 1422.3 1830 1706.8 1779.5C1991.3 1729 2275.7 1772 2560 1808C2844.3 1844 3128.7 1873 3413.2 1786.7C3697.7 1700.3 3982.3 1498.7 4266.8 1412.2C4551.3 1325.7 4835.7 1354.3 5120 1512.7C5404.3 1671 5688.7 1959 5973.2 2074.3C6257.7 2189.7 6542.3 2132.3 6826.8 1995.7C7111.3 1859 7395.7 1643 7537.8 1535L7680 1427L7680 1338L7537.8 1410C7395.7 1482 7111.3 1626 6826.8 1719.7C6542.3 1813.3 6257.7 1856.7 5973.2 1748.7C5688.7 1640.7 5404.3 1381.3 5120 1244.5C4835.7 1107.7 4551.3 1093.3 4266.8 1158.2C3982.3 1223 3697.7 1367 3413.2 1439C3128.7 1511 2844.3 1511 2560 1460.7C2275.7 1410.3 1991.3 1309.7 1706.8 1352.8C1422.3 1396 1137.7 1583 853.2 1662.2C568.7 1741.3 284.3 1712.7 142.2 1698.3L0 1684Z" fill="#0062f5"></path><path d="M0 2204L142.2 2434.5C284.3 2665 568.7 3126 853.2 3212.5C1137.7 3299 1422.3 3011 1706.8 2766.2C1991.3 2521.3 2275.7 2319.7 2560 2420.3C2844.3 2521 3128.7 2924 3413.2 2996C3697.7 3068 3982.3 2809 4266.8 2614.7C4551.3 2420.3 4835.7 2290.7 5120 2312.2C5404.3 2333.7 5688.7 2506.3 5973.2 2549.5C6257.7 2592.7 6542.3 2506.3 6826.8 2384C7111.3 2261.7 7395.7 2103.3 7537.8 2024.2L7680 1945L7680 1425L7537.8 1533C7395.7 1641 7111.3 1857 6826.8 1993.7C6542.3 2130.3 6257.7 2187.7 5973.2 2072.3C5688.7 1957 5404.3 1669 5120 1510.7C4835.7 1352.3 4551.3 1323.7 4266.8 1410.2C3982.3 1496.7 3697.7 1698.3 3413.2 1784.7C3128.7 1871 2844.3 1842 2560 1806C2275.7 1770 1991.3 1727 1706.8 1777.5C1422.3 1828 1137.7 1972 853.2 2008C568.7 2044 284.3 1972 142.2 1936L0 1900Z" fill="#005be1"></path><path d="M0 3716L142.2 3795.2C284.3 3874.3 568.7 4032.7 853.2 3967.8C1137.7 3903 1422.3 3615 1706.8 3514.3C1991.3 3413.7 2275.7 3500.3 2560 3572.3C2844.3 3644.3 3128.7 3701.7 3413.2 3672.8C3697.7 3644 3982.3 3529 4266.8 3565C4551.3 3601 4835.7 3788 5120 3831.2C5404.3 3874.3 5688.7 3773.7 5973.2 3730.5C6257.7 3687.3 6542.3 3701.7 6826.8 3644C7111.3 3586.3 7395.7 3456.7 7537.8 3391.8L7680 3327L7680 1943L7537.8 2022.2C7395.7 2101.3 7111.3 2259.7 6826.8 2382C6542.3 2504.3 6257.7 2590.7 5973.2 2547.5C5688.7 2504.3 5404.3 2331.7 5120 2310.2C4835.7 2288.7 4551.3 2418.3 4266.8 2612.7C3982.3 2807 3697.7 3066 3413.2 2994C3128.7 2922 2844.3 2519 2560 2418.3C2275.7 2317.7 1991.3 2519.3 1706.8 2764.2C1422.3 3009 1137.7 3297 853.2 3210.5C568.7 3124 284.3 2663 142.2 2432.5L0 2202Z" fill="#0053ce"></path><path d="M0 4321L142.2 4321C284.3 4321 568.7 4321 853.2 4321C1137.7 4321 1422.3 4321 1706.8 4321C1991.3 4321 2275.7 4321 2560 4321C2844.3 4321 3128.7 4321 3413.2 4321C3697.7 4321 3982.3 4321 4266.8 4321C4551.3 4321 4835.7 4321 5120 4321C5404.3 4321 5688.7 4321 5973.2 4321C6257.7 4321 6542.3 4321 6826.8 4321C7111.3 4321 7395.7 4321 7537.8 4321L7680 4321L7680 3325L7537.8 3389.8C7395.7 3454.7 7111.3 3584.3 6826.8 3642C6542.3 3699.7 6257.7 3685.3 5973.2 3728.5C5688.7 3771.7 5404.3 3872.3 5120 3829.2C4835.7 3786 4551.3 3599 4266.8 3563C3982.3 3527 3697.7 3642 3413.2 3670.8C3128.7 3699.7 2844.3 3642.3 2560 3570.3C2275.7 3498.3 1991.3 3411.7 1706.8 3512.3C1422.3 3613 1137.7 3901 853.2 3965.8C568.7 4030.7 284.3 3872.3 142.2 3793.2L0 3714Z" fill="#004cbb"></path></svg>