<svg id="visual" viewBox="0 0 7680 4320" width="7680" height="4320" xmlns="http://www.w3.org/2000/svg" xmlns:xlink="http://www.w3.org/1999/xlink" version="1.1"><path d="M0 390L91.5 382.8C183 375.7 366 361.3 548.8 368.5C731.7 375.7 914.3 404.3 1097.2 418.7C1280 433 1463 433 1645.8 425.8C1828.7 418.7 2011.3 404.3 2194.2 361.2C2377 318 2560 246 2742.8 217.2C2925.7 188.3 3108.3 202.7 3291.2 253C3474 303.3 3657 389.7 3840 425.7C4023 461.7 4206 447.3 4388.8 469C4571.7 490.7 4754.3 548.3 4937.2 613.2C5120 678 5303 750 5485.8 750C5668.7 750 5851.3 678 6034.2 663.5C6217 649 6400 692 6582.8 677.5C6765.7 663 6948.3 591 7131.2 504.7C7314 418.3 7497 317.7 7588.5 267.3L7680 217L7680 0L7588.5 0C7497 0 7314 0 7131.2 0C6948.3 0 6765.7 0 6582.8 0C6400 0 6217 0 6034.2 0C5851.3 0 5668.7 0 5485.8 0C5303 0 5120 0 4937.2 0C4754.3 0 4571.7 0 4388.8 0C4206 0 4023 0 3840 0C3657 0 3474 0 3291.2 0C3108.3 0 2925.7 0 2742.8 0C2560 0 2377 0 2194.2 0C2011.3 0 1828.7 0 1645.8 0C1463 0 1280 0 1097.2 0C914.3 0 731.7 0 548.8 0C366 0 183 0 91.5 0L0 0Z" fill="#7eaeff"></path><path d="M0 1945L91.5 1750.7C183 1556.3 366 1167.7 548.8 1002C731.7 836.3 914.3 893.7 1097.2 965.7C1280 1037.7 1463 1124.3 1645.8 1088.3C1828.7 1052.3 2011.3 893.7 2194.2 828.8C2377 764 2560 793 2742.8 951.5C2925.7 1110 3108.3 1398 3291.2 1419.5C3474 1441 3657 1196 3840 1124C4023 1052 4206 1153 4388.8 1253.8C4571.7 1354.7 4754.3 1455.3 4937.2 1556.2C5120 1657 5303 1758 5485.8 1729.2C5668.7 1700.3 5851.3 1541.7 6034.2 1505.7C6217 1469.7 6400 1556.3 6582.8 1534.8C6765.7 1513.3 6948.3 1383.7 7131.2 1304.3C7314 1225 7497 1196 7588.5 1181.5L7680 1167L7680 215L7588.5 265.3C7497 315.7 7314 416.3 7131.2 502.7C6948.3 589 6765.7 661 6582.8 675.5C6400 690 6217 647 6034.2 661.5C5851.3 676 5668.7 748 5485.8 748C5303 748 5120 676 4937.2 611.2C4754.3 546.3 4571.7 488.7 4388.8 467C4206 445.3 4023 459.7 3840 423.7C3657 387.7 3474 301.3 3291.2 251C3108.3 200.7 2925.7 186.3 2742.8 215.2C2560 244 2377 316 2194.2 359.2C2011.3 402.3 1828.7 416.7 1645.8 423.8C1463 431 1280 431 1097.2 416.7C914.3 402.3 731.7 373.7 548.8 366.5C366 359.3 183 373.7 91.5 380.8L0 388Z" fill="#73a7ff"></path><path d="M0 2075L91.5 1938.2C183 1801.3 366 1527.7 548.8 1354.8C731.7 1182 914.3 1110 1097.2 1124.3C1280 1138.7 1463 1239.3 1645.8 1260.8C1828.7 1282.3 2011.3 1224.7 2194.2 1152.7C2377 1080.7 2560 994.3 2742.8 1152.8C2925.7 1311.3 3108.3 1714.7 3291.2 1793.8C3474 1873 3657 1628 3840 1512.8C4023 1397.7 4206 1412.3 4388.8 1455.7C4571.7 1499 4754.3 1571 4937.2 1657.3C5120 1743.7 5303 1844.3 5485.8 1894.7C5668.7 1945 5851.3 1945 6034.2 1945C6217 1945 6400 1945 6582.8 1909C6765.7 1873 6948.3 1801 7131.2 1685.8C7314 1570.7 7497 1412.3 7588.5 1333.2L7680 1254L7680 1165L7588.5 1179.5C7497 1194 7314 1223 7131.2 1302.3C6948.3 1381.7 6765.7 1511.3 6582.8 1532.8C6400 1554.3 6217 1467.7 6034.2 1503.7C5851.3 1539.7 5668.7 1698.3 5485.8 1727.2C5303 1756 5120 1655 4937.2 1554.2C4754.3 1453.3 4571.7 1352.7 4388.8 1251.8C4206 1151 4023 1050 3840 1122C3657 1194 3474 1439 3291.2 1417.5C3108.3 1396 2925.7 1108 2742.8 949.5C2560 791 2377 762 2194.2 826.8C2011.3 891.7 1828.7 1050.3 1645.8 1086.3C1463 1122.3 1280 1035.7 1097.2 963.7C914.3 891.7 731.7 834.3 548.8 1000C366 1165.7 183 1554.3 91.5 1748.7L0 1943Z" fill="#68a1ff"></path><path d="M0 2118L91.5 1981.2C183 1844.3 366 1570.7 548.8 1397.8C731.7 1225 914.3 1153 1097.2 1174.7C1280 1196.3 1463 1311.7 1645.8 1333.3C1828.7 1355 2011.3 1283 2194.2 1203.7C2377 1124.3 2560 1037.7 2742.8 1224.8C2925.7 1412 3108.3 1873 3291.2 1988.3C3474 2103.7 3657 1873.3 3840 1765.3C4023 1657.3 4206 1671.7 4388.8 1693.2C4571.7 1714.7 4754.3 1743.3 4937.2 1815.3C5120 1887.3 5303 2002.7 5485.8 2038.7C5668.7 2074.7 5851.3 2031.3 6034.2 2038.5C6217 2045.7 6400 2103.3 6582.8 2089C6765.7 2074.7 6948.3 1988.3 7131.2 1858.7C7314 1729 7497 1556 7588.5 1469.5L7680 1383L7680 1252L7588.5 1331.2C7497 1410.3 7314 1568.7 7131.2 1683.8C6948.3 1799 6765.7 1871 6582.8 1907C6400 1943 6217 1943 6034.2 1943C5851.3 1943 5668.7 1943 5485.8 1892.7C5303 1842.3 5120 1741.7 4937.2 1655.3C4754.3 1569 4571.7 1497 4388.8 1453.7C4206 1410.3 4023 1395.7 3840 1510.8C3657 1626 3474 1871 3291.2 1791.8C3108.3 1712.7 2925.7 1309.3 2742.8 1150.8C2560 992.3 2377 1078.7 2194.2 1150.7C2011.3 1222.7 1828.7 1280.3 1645.8 1258.8C1463 1237.3 1280 1136.7 1097.2 1122.3C914.3 1108 731.7 1180 548.8 1352.8C366 1525.7 183 1799.3 91.5 1936.2L0 2073Z" fill="#5c9aff"></path><path d="M0 2550L91.5 2348.3C183 2146.7 366 1743.3 548.8 1505.7C731.7 1268 914.3 1196 1097.2 1217.7C1280 1239.3 1463 1354.7 1645.8 1405.2C1828.7 1455.7 2011.3 1441.3 2194.2 1390.8C2377 1340.3 2560 1253.7 2742.8 1462.3C2925.7 1671 3108.3 2175 3291.2 2304.7C3474 2434.3 3657 2189.7 3840 2045.7C4023 1901.7 4206 1858.3 4388.8 1844C4571.7 1829.7 4754.3 1844.3 4937.2 1930.8C5120 2017.3 5303 2175.7 5485.8 2204.3C5668.7 2233 5851.3 2132 6034.2 2153.5C6217 2175 6400 2319 6582.8 2311.8C6765.7 2304.7 6948.3 2146.3 7131.2 2002.3C7314 1858.3 7497 1728.7 7588.5 1663.8L7680 1599L7680 1381L7588.5 1467.5C7497 1554 7314 1727 7131.2 1856.7C6948.3 1986.3 6765.7 2072.7 6582.8 2087C6400 2101.3 6217 2043.7 6034.2 2036.5C5851.3 2029.3 5668.7 2072.7 5485.8 2036.7C5303 2000.7 5120 1885.3 4937.2 1813.3C4754.3 1741.3 4571.7 1712.7 4388.8 1691.2C4206 1669.7 4023 1655.3 3840 1763.3C3657 1871.3 3474 2101.7 3291.2 1986.3C3108.3 1871 2925.7 1410 2742.8 1222.8C2560 1035.7 2377 1122.3 2194.2 1201.7C2011.3 1281 1828.7 1353 1645.8 1331.3C1463 1309.7 1280 1194.3 1097.2 1172.7C914.3 1151 731.7 1223 548.8 1395.8C366 1568.7 183 1842.3 91.5 1979.2L0 2116Z" fill="#5093ff"></path><path d="M0 2939L91.5 2694.2C183 2449.3 366 1959.7 548.8 1700.3C731.7 1441 914.3 1412 1097.2 1462.3C1280 1512.7 1463 1642.3 1645.8 1721.7C1828.7 1801 2011.3 1830 2194.2 1758C2377 1686 2560 1513 2742.8 1693C2925.7 1873 3108.3 2406 3291.2 2557.2C3474 2708.3 3657 2477.7 3840 2355.2C4023 2232.7 4206 2218.3 4388.8 2211.2C4571.7 2204 4754.3 2204 4937.2 2240C5120 2276 5303 2348 5485.8 2340.8C5668.7 2333.7 5851.3 2247.3 6034.2 2261.8C6217 2276.3 6400 2391.7 6582.8 2413.3C6765.7 2435 6948.3 2363 7131.2 2240.5C7314 2118 7497 1945 7588.5 1858.5L7680 1772L7680 1597L7588.5 1661.8C7497 1726.7 7314 1856.3 7131.2 2000.3C6948.3 2144.3 6765.7 2302.7 6582.8 2309.8C6400 2317 6217 2173 6034.2 2151.5C5851.3 2130 5668.7 2231 5485.8 2202.3C5303 2173.7 5120 2015.3 4937.2 1928.8C4754.3 1842.3 4571.7 1827.7 4388.8 1842C4206 1856.3 4023 1899.7 3840 2043.7C3657 2187.7 3474 2432.3 3291.2 2302.7C3108.3 2173 2925.7 1669 2742.8 1460.3C2560 1251.7 2377 1338.3 2194.2 1388.8C2011.3 1439.3 1828.7 1453.7 1645.8 1403.2C1463 1352.7 1280 1237.3 1097.2 1215.7C914.3 1194 731.7 1266 548.8 1503.7C366 1741.3 183 2144.7 91.5 2346.3L0 2548Z" fill="#428cff"></path><path d="M0 3198L91.5 3154.8C183 3111.7 366 3025.3 548.8 2946.2C731.7 2867 914.3 2795 1097.2 2759C1280 2723 1463 2723 1645.8 2787.7C1828.7 2852.3 2011.3 2981.7 2194.2 3003.2C2377 3024.7 2560 2938.3 2742.8 2952.8C2925.7 2967.3 3108.3 3082.7 3291.2 3082.7C3474 3082.7 3657 2967.3 3840 2960.2C4023 2953 4206 3054 4388.8 2982C4571.7 2910 4754.3 2665 4937.2 2643.3C5120 2621.7 5303 2823.3 5485.8 2945.8C5668.7 3068.3 5851.3 3111.7 6034.2 3183.7C6217 3255.7 6400 3356.3 6582.8 3305.8C6765.7 3255.3 6948.3 3053.7 7131.2 2866.5C7314 2679.3 7497 2506.7 7588.5 2420.3L7680 2334L7680 1770L7588.5 1856.5C7497 1943 7314 2116 7131.2 2238.5C6948.3 2361 6765.7 2433 6582.8 2411.3C6400 2389.7 6217 2274.3 6034.2 2259.8C5851.3 2245.3 5668.7 2331.7 5485.8 2338.8C5303 2346 5120 2274 4937.2 2238C4754.3 2202 4571.7 2202 4388.8 2209.2C4206 2216.3 4023 2230.7 3840 2353.2C3657 2475.7 3474 2706.3 3291.2 2555.2C3108.3 2404 2925.7 1871 2742.8 1691C2560 1511 2377 1684 2194.2 1756C2011.3 1828 1828.7 1799 1645.8 1719.7C1463 1640.3 1280 1510.7 1097.2 1460.3C914.3 1410 731.7 1439 548.8 1698.3C366 1957.7 183 2447.3 91.5 2692.2L0 2937Z" fill="#3985f9"></path><path d="M0 3457L91.5 3428.2C183 3399.3 366 3341.7 548.8 3291.3C731.7 3241 914.3 3198 1097.2 3140.5C1280 3083 1463 3011 1645.8 3075.7C1828.7 3140.3 2011.3 3341.7 2194.2 3370.3C2377 3399 2560 3255 2742.8 3240.7C2925.7 3226.3 3108.3 3341.7 3291.2 3370.5C3474 3399.3 3657 3341.7 3840 3356C4023 3370.3 4206 3456.7 4388.8 3377.5C4571.7 3298.3 4754.3 3053.7 4937.2 2981.7C5120 2909.7 5303 3010.3 5485.8 3082.3C5668.7 3154.3 5851.3 3197.7 6034.2 3291.3C6217 3385 6400 3529 6582.8 3543.3C6765.7 3557.7 6948.3 3442.3 7131.2 3284C7314 3125.7 7497 2924.3 7588.5 2823.7L7680 2723L7680 2332L7588.5 2418.3C7497 2504.7 7314 2677.3 7131.2 2864.5C6948.3 3051.7 6765.7 3253.3 6582.8 3303.8C6400 3354.3 6217 3253.7 6034.2 3181.7C5851.3 3109.7 5668.7 3066.3 5485.8 2943.8C5303 2821.3 5120 2619.7 4937.2 2641.3C4754.3 2663 4571.7 2908 4388.8 2980C4206 3052 4023 2951 3840 2958.2C3657 2965.3 3474 3080.7 3291.2 3080.7C3108.3 3080.7 2925.7 2965.3 2742.8 2950.8C2560 2936.3 2377 3022.7 2194.2 3001.2C2011.3 2979.7 1828.7 2850.3 1645.8 2785.7C1463 2721 1280 2721 1097.2 2757C914.3 2793 731.7 2865 548.8 2944.2C366 3023.3 183 3109.7 91.5 3152.8L0 3196Z" fill="#367eed"></path><path d="M0 3630L91.5 3586.8C183 3543.7 366 3457.3 548.8 3428.5C731.7 3399.7 914.3 3428.3 1097.2 3399.5C1280 3370.7 1463 3284.3 1645.8 3349.2C1828.7 3414 2011.3 3630 2194.2 3651.5C2377 3673 2560 3500 2742.8 3449.5C2925.7 3399 3108.3 3471 3291.2 3478.3C3474 3485.7 3657 3428.3 3840 3457.2C4023 3486 4206 3601 4388.8 3543.3C4571.7 3485.7 4754.3 3255.3 4937.2 3190.5C5120 3125.7 5303 3226.3 5485.8 3276.7C5668.7 3327 5851.3 3327 6034.2 3399C6217 3471 6400 3615 6582.8 3665.5C6765.7 3716 6948.3 3673 7131.2 3543.5C7314 3414 7497 3198 7588.5 3090L7680 2982L7680 2721L7588.5 2821.7C7497 2922.3 7314 3123.7 7131.2 3282C6948.3 3440.3 6765.7 3555.7 6582.8 3541.3C6400 3527 6217 3383 6034.2 3289.3C5851.3 3195.7 5668.7 3152.3 5485.8 3080.3C5303 3008.3 5120 2907.7 4937.2 2979.7C4754.3 3051.7 4571.7 3296.3 4388.8 3375.5C4206 3454.7 4023 3368.3 3840 3354C3657 3339.7 3474 3397.3 3291.2 3368.5C3108.3 3339.7 2925.7 3224.3 2742.8 3238.7C2560 3253 2377 3397 2194.2 3368.3C2011.3 3339.7 1828.7 3138.3 1645.8 3073.7C1463 3009 1280 3081 1097.2 3138.5C914.3 3196 731.7 3239 548.8 3289.3C366 3339.7 183 3397.3 91.5 3426.2L0 3455Z" fill="#3377e2"></path><path d="M0 3716L91.5 3665.7C183 3615.3 366 3514.7 548.8 3500.3C731.7 3486 914.3 3558 1097.2 3572.3C1280 3586.7 1463 3543.3 1645.8 3593.7C1828.7 3644 2011.3 3788 2194.2 3788C2377 3788 2560 3644 2742.8 3593.7C2925.7 3543.3 3108.3 3586.7 3291.2 3572.3C3474 3558 3657 3486 3840 3550.8C4023 3615.7 4206 3817.3 4388.8 3795.7C4571.7 3774 4754.3 3529 4937.2 3442.5C5120 3356 5303 3428 5485.8 3449.7C5668.7 3471.3 5851.3 3442.7 6034.2 3500.3C6217 3558 6400 3702 6582.8 3759.5C6765.7 3817 6948.3 3788 7131.2 3687.2C7314 3586.3 7497 3413.7 7588.5 3327.3L7680 3241L7680 2980L7588.5 3088C7497 3196 7314 3412 7131.2 3541.5C6948.3 3671 6765.7 3714 6582.8 3663.5C6400 3613 6217 3469 6034.2 3397C5851.3 3325 5668.7 3325 5485.8 3274.7C5303 3224.3 5120 3123.7 4937.2 3188.5C4754.3 3253.3 4571.7 3483.7 4388.8 3541.3C4206 3599 4023 3484 3840 3455.2C3657 3426.3 3474 3483.7 3291.2 3476.3C3108.3 3469 2925.7 3397 2742.8 3447.5C2560 3498 2377 3671 2194.2 3649.5C2011.3 3628 1828.7 3412 1645.8 3347.2C1463 3282.3 1280 3368.7 1097.2 3397.5C914.3 3426.3 731.7 3397.7 548.8 3426.5C366 3455.3 183 3541.7 91.5 3584.8L0 3628Z" fill="#3071d6"></path><path d="M0 3759L91.5 3759C183 3759 366 3759 548.8 3759C731.7 3759 914.3 3759 1097.2 3723C1280 3687 1463 3615 1645.8 3665.5C1828.7 3716 2011.3 3889 2194.2 3939.5C2377 3990 2560 3918 2742.8 3896.3C2925.7 3874.7 3108.3 3903.3 3291.2 3881.7C3474 3860 3657 3788 3840 3831.2C4023 3874.3 4206 4032.7 4388.8 4018.3C4571.7 4004 4754.3 3817 4937.2 3709C5120 3601 5303 3572 5485.8 3557.5C5668.7 3543 5851.3 3543 6034.2 3643.8C6217 3744.7 6400 3946.3 6582.8 4011.2C6765.7 4076 6948.3 4004 7131.2 3896C7314 3788 7497 3644 7588.5 3572L7680 3500L7680 3239L7588.5 3325.3C7497 3411.7 7314 3584.3 7131.2 3685.2C6948.3 3786 6765.7 3815 6582.8 3757.5C6400 3700 6217 3556 6034.2 3498.3C5851.3 3440.7 5668.7 3469.3 5485.8 3447.7C5303 3426 5120 3354 4937.2 3440.5C4754.3 3527 4571.7 3772 4388.8 3793.7C4206 3815.3 4023 3613.7 3840 3548.8C3657 3484 3474 3556 3291.2 3570.3C3108.3 3584.7 2925.7 3541.3 2742.8 3591.7C2560 3642 2377 3786 2194.2 3786C2011.3 3786 1828.7 3642 1645.8 3591.7C1463 3541.3 1280 3584.7 1097.2 3570.3C914.3 3556 731.7 3484 548.8 3498.3C366 3512.7 183 3613.3 91.5 3663.7L0 3714Z" fill="#2c6acb"></path><path d="M0 4321L91.5 4321C183 4321 366 4321 548.8 4321C731.7 4321 914.3 4321 1097.2 4321C1280 4321 1463 4321 1645.8 4321C1828.7 4321 2011.3 4321 2194.2 4321C2377 4321 2560 4321 2742.8 4321C2925.7 4321 3108.3 4321 3291.2 4321C3474 4321 3657 4321 3840 4321C4023 4321 4206 4321 4388.8 4321C4571.7 4321 4754.3 4321 4937.2 4321C5120 4321 5303 4321 5485.8 4321C5668.7 4321 5851.3 4321 6034.2 4321C6217 4321 6400 4321 6582.8 4321C6765.7 4321 6948.3 4321 7131.2 4321C7314 4321 7497 4321 7588.5 4321L7680 4321L7680 3498L7588.5 3570C7497 3642 7314 3786 7131.2 3894C6948.3 4002 6765.7 4074 6582.8 4009.2C6400 3944.3 6217 3742.7 6034.2 3641.8C5851.3 3541 5668.7 3541 5485.8 3555.5C5303 3570 5120 3599 4937.2 3707C4754.3 3815 4571.7 4002 4388.8 4016.3C4206 4030.7 4023 3872.3 3840 3829.2C3657 3786 3474 3858 3291.2 3879.7C3108.3 3901.3 2925.7 3872.7 2742.8 3894.3C2560 3916 2377 3988 2194.2 3937.5C2011.3 3887 1828.7 3714 1645.8 3663.5C1463 3613 1280 3685 1097.2 3721C914.3 3757 731.7 3757 548.8 3757C366 3757 183 3757 91.5 3757L0 3757Z" fill="#2963c0"></path></svg>