<svg id="visual" viewBox="0 0 7680 4320" width="7680" height="4320" xmlns="http://www.w3.org/2000/svg" xmlns:xlink="http://www.w3.org/1999/xlink" version="1.1"><g stroke-width="1" stroke-linejoin="bevel"><path d="M3913 2141L4168 2422L4149 2077Z" fill="#0047fe" stroke="#0047fe"></path><path d="M3913 2141L3873 2615L4168 2422Z" fill="#0066ff" stroke="#0066ff"></path><path d="M4168 2422L4563 2149L4149 2077Z" fill="#0060ff" stroke="#0060ff"></path><path d="M4563 2149L4320 1797L4149 2077Z" fill="#002efa" stroke="#002efa"></path><path d="M4149 2077L3852 1779L3913 2141Z" fill="#0024f9" stroke="#0024f9"></path><path d="M4320 1797L3852 1779L4149 2077Z" fill="#0037fc" stroke="#0037fc"></path><path d="M3913 2141L3542 2451L3873 2615Z" fill="#002efa" stroke="#002efa"></path><path d="M3450 2117L3542 2451L3913 2141Z" fill="#005bff" stroke="#005bff"></path><path d="M3542 2451L3844 2795L3873 2615Z" fill="#0615f7" stroke="#0615f7"></path><path d="M3873 2615L4232 2881L4168 2422Z" fill="#0040fd" stroke="#0040fd"></path><path d="M4168 2422L4685 2422L4563 2149Z" fill="#0047fe" stroke="#0047fe"></path><path d="M3532 1859L3450 2117L3913 2141Z" fill="#0060ff" stroke="#0060ff"></path><path d="M4509 2912L4685 2422L4168 2422Z" fill="#0066ff" stroke="#0066ff"></path><path d="M3844 2795L4232 2881L3873 2615Z" fill="#005bff" stroke="#005bff"></path><path d="M3852 1779L3532 1859L3913 2141Z" fill="#002efa" stroke="#002efa"></path><path d="M4232 2881L4509 2912L4168 2422Z" fill="#0054ff" stroke="#0054ff"></path><path d="M4961 1743L4651 1710L4563 2149Z" fill="#0047fe" stroke="#0047fe"></path><path d="M4563 2149L4651 1710L4320 1797Z" fill="#0024f9" stroke="#0024f9"></path><path d="M4320 1797L4172 1410L3852 1779Z" fill="#0024f9" stroke="#0024f9"></path><path d="M3542 2451L3499 2875L3844 2795Z" fill="#0060ff" stroke="#0060ff"></path><path d="M3844 2795L3774 3186L4232 2881Z" fill="#0066ff" stroke="#0066ff"></path><path d="M4232 2881L4274 3269L4509 2912Z" fill="#0615f7" stroke="#0615f7"></path><path d="M3021 2828L3499 2875L3542 2451Z" fill="#005bff" stroke="#005bff"></path><path d="M4521 1439L4172 1410L4320 1797Z" fill="#0037fc" stroke="#0037fc"></path><path d="M3852 1779L3430 1482L3532 1859Z" fill="#0024f9" stroke="#0024f9"></path><path d="M4172 1410L3816 1399L3852 1779Z" fill="#0615f7" stroke="#0615f7"></path><path d="M4986 2874L4975 2442L4685 2422Z" fill="#0024f9" stroke="#0024f9"></path><path d="M4685 2422L5080 2141L4563 2149Z" fill="#002efa" stroke="#002efa"></path><path d="M4651 1710L4521 1439L4320 1797Z" fill="#0037fc" stroke="#0037fc"></path><path d="M3499 2875L3774 3186L3844 2795Z" fill="#0047fe" stroke="#0047fe"></path><path d="M3816 1399L3430 1482L3852 1779Z" fill="#0060ff" stroke="#0060ff"></path><path d="M3071 1873L3050 2064L3450 2117Z" fill="#0037fc" stroke="#0037fc"></path><path d="M4975 2442L5080 2141L4685 2422Z" fill="#002efa" stroke="#002efa"></path><path d="M4651 1710L5039 1385L4521 1439Z" fill="#0066ff" stroke="#0066ff"></path><path d="M5080 2141L4961 1743L4563 2149Z" fill="#0054ff" stroke="#0054ff"></path><path d="M3774 3186L4274 3269L4232 2881Z" fill="#0615f7" stroke="#0615f7"></path><path d="M4509 2912L4986 2874L4685 2422Z" fill="#005bff" stroke="#005bff"></path><path d="M3071 1873L3450 2117L3532 1859Z" fill="#0047fe" stroke="#0047fe"></path><path d="M3450 2117L2989 2481L3542 2451Z" fill="#0060ff" stroke="#0060ff"></path><path d="M3430 1482L3071 1873L3532 1859Z" fill="#0047fe" stroke="#0047fe"></path><path d="M3072 3197L3475 3173L3499 2875Z" fill="#004eff" stroke="#004eff"></path><path d="M3499 2875L3475 3173L3774 3186Z" fill="#004eff" stroke="#004eff"></path><path d="M3774 3186L4227 3556L4274 3269Z" fill="#0054ff" stroke="#0054ff"></path><path d="M2673 2586L2989 2481L2598 2072Z" fill="#0047fe" stroke="#0047fe"></path><path d="M3050 2064L2989 2481L3450 2117Z" fill="#004eff" stroke="#004eff"></path><path d="M4611 3231L4986 2874L4509 2912Z" fill="#0054ff" stroke="#0054ff"></path><path d="M4975 2442L5365 2254L5080 2141Z" fill="#0037fc" stroke="#0037fc"></path><path d="M4172 1410L3890 1153L3816 1399Z" fill="#002efa" stroke="#002efa"></path><path d="M3816 1399L3412 1116L3430 1482Z" fill="#0054ff" stroke="#0054ff"></path><path d="M4251 1036L3890 1153L4172 1410Z" fill="#0615f7" stroke="#0615f7"></path><path d="M4274 3269L4611 3231L4509 2912Z" fill="#0047fe" stroke="#0047fe"></path><path d="M2989 2481L3021 2828L3542 2451Z" fill="#0615f7" stroke="#0615f7"></path><path d="M3430 1482L3164 1469L3071 1873Z" fill="#0615f7" stroke="#0615f7"></path><path d="M3412 1116L3164 1469L3430 1482Z" fill="#0040fd" stroke="#0040fd"></path><path d="M4535 1044L4251 1036L4521 1439Z" fill="#0037fc" stroke="#0037fc"></path><path d="M4521 1439L4251 1036L4172 1410Z" fill="#0066ff" stroke="#0066ff"></path><path d="M5358 2571L5365 2254L4975 2442Z" fill="#0037fc" stroke="#0037fc"></path><path d="M5080 2141L5453 1804L4961 1743Z" fill="#0066ff" stroke="#0066ff"></path><path d="M5039 1385L4651 1710L4961 1743Z" fill="#0066ff" stroke="#0066ff"></path><path d="M5039 1385L4535 1044L4521 1439Z" fill="#004eff" stroke="#004eff"></path><path d="M5380 1416L5039 1385L4961 1743Z" fill="#0066ff" stroke="#0066ff"></path><path d="M3805 3675L4227 3556L3774 3186Z" fill="#0060ff" stroke="#0060ff"></path><path d="M4274 3269L4548 3620L4611 3231Z" fill="#0615f7" stroke="#0615f7"></path><path d="M3411 803L3412 1116L3890 1153Z" fill="#0024f9" stroke="#0024f9"></path><path d="M3890 1153L3412 1116L3816 1399Z" fill="#0037fc" stroke="#0037fc"></path><path d="M5364 2803L5358 2571L4986 2874Z" fill="#0024f9" stroke="#0024f9"></path><path d="M4986 2874L5358 2571L4975 2442Z" fill="#0060ff" stroke="#0060ff"></path><path d="M4899 3533L5046 3206L4611 3231Z" fill="#0040fd" stroke="#0040fd"></path><path d="M4611 3231L5046 3206L4986 2874Z" fill="#0024f9" stroke="#0024f9"></path><path d="M3021 2828L3072 3197L3499 2875Z" fill="#0037fc" stroke="#0037fc"></path><path d="M3475 3173L3805 3675L3774 3186Z" fill="#005bff" stroke="#005bff"></path><path d="M5332 3157L5364 2803L4986 2874Z" fill="#0040fd" stroke="#0040fd"></path><path d="M5726 2125L5453 1804L5365 2254Z" fill="#0037fc" stroke="#0037fc"></path><path d="M2598 2072L2989 2481L3050 2064Z" fill="#0066ff" stroke="#0066ff"></path><path d="M2989 2481L2673 2586L3021 2828Z" fill="#004eff" stroke="#004eff"></path><path d="M3021 2828L2735 2971L3072 3197Z" fill="#0037fc" stroke="#0037fc"></path><path d="M2598 2072L3050 2064L3071 1873Z" fill="#0040fd" stroke="#0040fd"></path><path d="M3357 3631L3805 3675L3475 3173Z" fill="#0060ff" stroke="#0060ff"></path><path d="M4282 3964L4548 3620L4227 3556Z" fill="#0615f7" stroke="#0615f7"></path><path d="M4227 3556L4548 3620L4274 3269Z" fill="#0037fc" stroke="#0037fc"></path><path d="M5726 2125L5365 2254L5806 2590Z" fill="#005bff" stroke="#005bff"></path><path d="M5365 2254L5453 1804L5080 2141Z" fill="#0024f9" stroke="#0024f9"></path><path d="M2641 1535L2689 1715L3164 1469Z" fill="#0066ff" stroke="#0066ff"></path><path d="M3164 1469L2689 1715L3071 1873Z" fill="#0066ff" stroke="#0066ff"></path><path d="M2689 1715L2598 2072L3071 1873Z" fill="#0047fe" stroke="#0047fe"></path><path d="M2673 2586L2735 2971L3021 2828Z" fill="#002efa" stroke="#002efa"></path><path d="M4548 3620L4899 3533L4611 3231Z" fill="#0047fe" stroke="#0047fe"></path><path d="M5046 3206L5332 3157L4986 2874Z" fill="#002efa" stroke="#002efa"></path><path d="M3412 1116L2978 1174L3164 1469Z" fill="#0054ff" stroke="#0054ff"></path><path d="M3106 3620L3357 3631L3072 3197Z" fill="#0066ff" stroke="#0066ff"></path><path d="M3072 3197L3357 3631L3475 3173Z" fill="#002efa" stroke="#002efa"></path><path d="M5338 3677L5332 3157L5046 3206Z" fill="#0024f9" stroke="#0024f9"></path><path d="M5453 1804L5380 1416L4961 1743Z" fill="#0054ff" stroke="#0054ff"></path><path d="M5039 1385L4965 980L4535 1044Z" fill="#0060ff" stroke="#0060ff"></path><path d="M5436 1145L4965 980L5039 1385Z" fill="#004eff" stroke="#004eff"></path><path d="M4516 632L4188 673L4251 1036Z" fill="#0037fc" stroke="#0037fc"></path><path d="M4516 632L4251 1036L4535 1044Z" fill="#0024f9" stroke="#0024f9"></path><path d="M4251 1036L4188 673L3890 1153Z" fill="#0066ff" stroke="#0066ff"></path><path d="M3412 1116L3132 697L2978 1174Z" fill="#0615f7" stroke="#0615f7"></path><path d="M3861 638L3411 803L3890 1153Z" fill="#0040fd" stroke="#0040fd"></path><path d="M2978 1174L2641 1535L3164 1469Z" fill="#0060ff" stroke="#0060ff"></path><path d="M2345 1779L2382 2076L2598 2072Z" fill="#0047fe" stroke="#0047fe"></path><path d="M4188 673L3861 638L3890 1153Z" fill="#0060ff" stroke="#0060ff"></path><path d="M3525 4021L3835 3890L3805 3675Z" fill="#0047fe" stroke="#0047fe"></path><path d="M3805 3675L3835 3890L4227 3556Z" fill="#0066ff" stroke="#0066ff"></path><path d="M4548 3620L4972 3948L4899 3533Z" fill="#002efa" stroke="#002efa"></path><path d="M5806 2590L5358 2571L5364 2803Z" fill="#002efa" stroke="#002efa"></path><path d="M5806 2590L5365 2254L5358 2571Z" fill="#005bff" stroke="#005bff"></path><path d="M5453 1804L5778 1388L5380 1416Z" fill="#0047fe" stroke="#0047fe"></path><path d="M2758 3291L3106 3620L3072 3197Z" fill="#002efa" stroke="#002efa"></path><path d="M3357 3631L3525 4021L3805 3675Z" fill="#0054ff" stroke="#0054ff"></path><path d="M2225 3261L2758 3291L2735 2971Z" fill="#0047fe" stroke="#0047fe"></path><path d="M2735 2971L2758 3291L3072 3197Z" fill="#005bff" stroke="#005bff"></path><path d="M2332 2792L2735 2971L2673 2586Z" fill="#0054ff" stroke="#0054ff"></path><path d="M4913 692L4516 632L4535 1044Z" fill="#0047fe" stroke="#0047fe"></path><path d="M4188 673L3879 350L3861 638Z" fill="#002efa" stroke="#002efa"></path><path d="M2345 1779L2598 2072L2689 1715Z" fill="#0615f7" stroke="#0615f7"></path><path d="M2598 2072L2382 2076L2673 2586Z" fill="#0054ff" stroke="#0054ff"></path><path d="M5726 2125L5742 1844L5453 1804Z" fill="#0047fe" stroke="#0047fe"></path><path d="M3835 3890L4282 3964L4227 3556Z" fill="#0054ff" stroke="#0054ff"></path><path d="M5380 1416L5436 1145L5039 1385Z" fill="#0037fc" stroke="#0037fc"></path><path d="M4965 980L4913 692L4535 1044Z" fill="#0054ff" stroke="#0054ff"></path><path d="M5778 1388L5436 1145L5380 1416Z" fill="#005bff" stroke="#005bff"></path><path d="M5813 2829L5806 2590L5364 2803Z" fill="#0037fc" stroke="#0037fc"></path><path d="M5726 2125L6178 2066L5742 1844Z" fill="#0037fc" stroke="#0037fc"></path><path d="M5345 673L4913 692L4965 980Z" fill="#0040fd" stroke="#0040fd"></path><path d="M2641 1535L2345 1779L2689 1715Z" fill="#0047fe" stroke="#0047fe"></path><path d="M2265 1508L2345 1779L2641 1535Z" fill="#0615f7" stroke="#0615f7"></path><path d="M3411 803L3132 697L3412 1116Z" fill="#0040fd" stroke="#0040fd"></path><path d="M2978 1174L2644 1006L2641 1535Z" fill="#0047fe" stroke="#0047fe"></path><path d="M3159 452L3132 697L3411 803Z" fill="#0024f9" stroke="#0024f9"></path><path d="M2240 2515L2332 2792L2673 2586Z" fill="#0047fe" stroke="#0047fe"></path><path d="M2240 2515L2673 2586L2382 2076Z" fill="#0040fd" stroke="#0040fd"></path><path d="M5734 3187L5813 2829L5364 2803Z" fill="#0040fd" stroke="#0040fd"></path><path d="M5734 3187L5364 2803L5332 3157Z" fill="#0037fc" stroke="#0037fc"></path><path d="M4282 3964L4633 4012L4548 3620Z" fill="#0615f7" stroke="#0615f7"></path><path d="M4899 3533L5338 3677L5046 3206Z" fill="#005bff" stroke="#005bff"></path><path d="M1994 2156L2240 2515L2382 2076Z" fill="#0040fd" stroke="#0040fd"></path><path d="M3068 3976L3525 4021L3357 3631Z" fill="#002efa" stroke="#002efa"></path><path d="M3835 3890L4153 4320L4282 3964Z" fill="#005bff" stroke="#005bff"></path><path d="M4282 3964L4544 4320L4633 4012Z" fill="#005bff" stroke="#005bff"></path><path d="M3068 3976L3357 3631L3106 3620Z" fill="#0040fd" stroke="#0040fd"></path><path d="M4535 296L4299 404L4516 632Z" fill="#002efa" stroke="#002efa"></path><path d="M4516 632L4299 404L4188 673Z" fill="#0615f7" stroke="#0615f7"></path><path d="M3861 638L3544 440L3411 803Z" fill="#0054ff" stroke="#0054ff"></path><path d="M3879 350L3544 440L3861 638Z" fill="#0066ff" stroke="#0066ff"></path><path d="M3132 697L2644 1006L2978 1174Z" fill="#004eff" stroke="#004eff"></path><path d="M4972 3948L5338 3677L4899 3533Z" fill="#0024f9" stroke="#0024f9"></path><path d="M5719 3571L5734 3187L5332 3157Z" fill="#0066ff" stroke="#0066ff"></path><path d="M4299 404L3879 350L4188 673Z" fill="#0615f7" stroke="#0615f7"></path><path d="M6193 1747L5778 1388L5742 1844Z" fill="#0615f7" stroke="#0615f7"></path><path d="M5742 1844L5778 1388L5453 1804Z" fill="#0024f9" stroke="#0024f9"></path><path d="M5436 1145L5345 673L4965 980Z" fill="#004eff" stroke="#004eff"></path><path d="M6113 2441L5726 2125L5806 2590Z" fill="#0066ff" stroke="#0066ff"></path><path d="M4633 4012L4972 3948L4548 3620Z" fill="#004eff" stroke="#004eff"></path><path d="M2225 3261L2659 3601L2758 3291Z" fill="#0047fe" stroke="#0047fe"></path><path d="M2758 3291L2659 3601L3106 3620Z" fill="#005bff" stroke="#005bff"></path><path d="M2262 1130L2265 1508L2641 1535Z" fill="#0024f9" stroke="#0024f9"></path><path d="M2345 1779L1994 2156L2382 2076Z" fill="#0066ff" stroke="#0066ff"></path><path d="M2647 3897L3068 3976L3106 3620Z" fill="#0615f7" stroke="#0615f7"></path><path d="M4920 274L4516 632L4913 692Z" fill="#0066ff" stroke="#0066ff"></path><path d="M4920 274L4535 296L4516 632Z" fill="#0054ff" stroke="#0054ff"></path><path d="M4299 404L4263 0L3879 350Z" fill="#0066ff" stroke="#0066ff"></path><path d="M3544 440L3159 452L3411 803Z" fill="#0615f7" stroke="#0615f7"></path><path d="M3132 697L2601 744L2644 1006Z" fill="#002efa" stroke="#002efa"></path><path d="M3369 0L3159 452L3544 440Z" fill="#005bff" stroke="#005bff"></path><path d="M5708 1044L5345 673L5436 1145Z" fill="#0054ff" stroke="#0054ff"></path><path d="M5778 1388L5708 1044L5436 1145Z" fill="#0037fc" stroke="#0037fc"></path><path d="M6080 2886L5806 2590L5813 2829Z" fill="#0615f7" stroke="#0615f7"></path><path d="M6080 2886L6113 2441L5806 2590Z" fill="#0060ff" stroke="#0060ff"></path><path d="M5778 1388L6137 1351L5708 1044Z" fill="#0054ff" stroke="#0054ff"></path><path d="M3815 4320L3835 3890L3525 4021Z" fill="#0040fd" stroke="#0040fd"></path><path d="M3815 4320L4153 4320L3835 3890Z" fill="#0066ff" stroke="#0066ff"></path><path d="M4633 4012L4993 4320L4972 3948Z" fill="#005bff" stroke="#005bff"></path><path d="M1822 1765L1994 2156L2345 1779Z" fill="#004eff" stroke="#004eff"></path><path d="M1971 2867L2225 3261L2332 2792Z" fill="#005bff" stroke="#005bff"></path><path d="M2332 2792L2225 3261L2735 2971Z" fill="#0615f7" stroke="#0615f7"></path><path d="M3392 4320L3815 4320L3525 4021Z" fill="#0047fe" stroke="#0047fe"></path><path d="M1971 2867L2332 2792L2240 2515Z" fill="#005bff" stroke="#005bff"></path><path d="M2659 3601L2647 3897L3106 3620Z" fill="#0040fd" stroke="#0040fd"></path><path d="M6074 3256L6080 2886L5734 3187Z" fill="#0024f9" stroke="#0024f9"></path><path d="M5734 3187L6080 2886L5813 2829Z" fill="#0054ff" stroke="#0054ff"></path><path d="M2641 430L2601 744L3132 697Z" fill="#0066ff" stroke="#0066ff"></path><path d="M2644 1006L2262 1130L2641 1535Z" fill="#0060ff" stroke="#0060ff"></path><path d="M5819 3928L5719 3571L5338 3677Z" fill="#0615f7" stroke="#0615f7"></path><path d="M5338 3677L5719 3571L5332 3157Z" fill="#0066ff" stroke="#0066ff"></path><path d="M6505 2228L6178 2066L6113 2441Z" fill="#005bff" stroke="#005bff"></path><path d="M6113 2441L6178 2066L5726 2125Z" fill="#002efa" stroke="#002efa"></path><path d="M4153 4320L4544 4320L4282 3964Z" fill="#0047fe" stroke="#0047fe"></path><path d="M4972 3948L5377 4016L5338 3677Z" fill="#004eff" stroke="#004eff"></path><path d="M2601 744L2262 1130L2644 1006Z" fill="#002efa" stroke="#002efa"></path><path d="M2265 1508L1822 1765L2345 1779Z" fill="#0024f9" stroke="#0024f9"></path><path d="M5285 304L4920 274L4913 692Z" fill="#0615f7" stroke="#0615f7"></path><path d="M2256 3679L2647 3897L2659 3601Z" fill="#0047fe" stroke="#0047fe"></path><path d="M3068 3976L3392 4320L3525 4021Z" fill="#005bff" stroke="#005bff"></path><path d="M3084 4320L3392 4320L3068 3976Z" fill="#0040fd" stroke="#0040fd"></path><path d="M6178 2066L6193 1747L5742 1844Z" fill="#0615f7" stroke="#0615f7"></path><path d="M1851 2442L1971 2867L2240 2515Z" fill="#005bff" stroke="#005bff"></path><path d="M4993 4320L5377 4016L4972 3948Z" fill="#002efa" stroke="#002efa"></path><path d="M1994 2156L1851 2442L2240 2515Z" fill="#0024f9" stroke="#0024f9"></path><path d="M1634 2501L1851 2442L1537 2061Z" fill="#0040fd" stroke="#0040fd"></path><path d="M5719 3571L6074 3256L5734 3187Z" fill="#0615f7" stroke="#0615f7"></path><path d="M6491 2605L6505 2228L6113 2441Z" fill="#0037fc" stroke="#0037fc"></path><path d="M6136 3691L6074 3256L5719 3571Z" fill="#004eff" stroke="#004eff"></path><path d="M6193 1747L6137 1351L5778 1388Z" fill="#0024f9" stroke="#0024f9"></path><path d="M5708 1044L5710 681L5345 673Z" fill="#0047fe" stroke="#0047fe"></path><path d="M5345 673L5285 304L4913 692Z" fill="#002efa" stroke="#002efa"></path><path d="M4544 4320L4993 4320L4633 4012Z" fill="#0054ff" stroke="#0054ff"></path><path d="M4618 0L4263 0L4535 296Z" fill="#005bff" stroke="#005bff"></path><path d="M4535 296L4263 0L4299 404Z" fill="#002efa" stroke="#002efa"></path><path d="M3879 350L3808 0L3544 440Z" fill="#004eff" stroke="#004eff"></path><path d="M1997 1148L1978 1376L2262 1130Z" fill="#0615f7" stroke="#0615f7"></path><path d="M2262 1130L1978 1376L2265 1508Z" fill="#0054ff" stroke="#0054ff"></path><path d="M4263 0L3808 0L3879 350Z" fill="#0040fd" stroke="#0040fd"></path><path d="M3159 452L2641 430L3132 697Z" fill="#0047fe" stroke="#0047fe"></path><path d="M6220 1009L5710 681L5708 1044Z" fill="#0615f7" stroke="#0615f7"></path><path d="M1971 2867L1988 3173L2225 3261Z" fill="#0615f7" stroke="#0615f7"></path><path d="M2225 3261L2256 3679L2659 3601Z" fill="#004eff" stroke="#004eff"></path><path d="M1476 2975L1988 3173L1971 2867Z" fill="#0040fd" stroke="#0040fd"></path><path d="M2763 4320L3084 4320L3068 3976Z" fill="#0060ff" stroke="#0060ff"></path><path d="M5710 681L5285 304L5345 673Z" fill="#005bff" stroke="#005bff"></path><path d="M4920 274L4618 0L4535 296Z" fill="#005bff" stroke="#005bff"></path><path d="M1978 1376L1822 1765L2265 1508Z" fill="#0037fc" stroke="#0037fc"></path><path d="M2012 3636L2256 3679L2225 3261Z" fill="#0037fc" stroke="#0037fc"></path><path d="M2647 3897L2763 4320L3068 3976Z" fill="#0615f7" stroke="#0615f7"></path><path d="M3083 0L2641 430L3159 452Z" fill="#0047fe" stroke="#0047fe"></path><path d="M1941 658L1997 1148L2262 1130Z" fill="#002efa" stroke="#002efa"></path><path d="M4991 0L4618 0L4920 274Z" fill="#0047fe" stroke="#0047fe"></path><path d="M2309 622L2262 1130L2601 744Z" fill="#0024f9" stroke="#0024f9"></path><path d="M1486 1874L1537 2061L1822 1765Z" fill="#005bff" stroke="#005bff"></path><path d="M3808 0L3369 0L3544 440Z" fill="#0066ff" stroke="#0066ff"></path><path d="M2272 446L2309 622L2641 430Z" fill="#002efa" stroke="#002efa"></path><path d="M2641 430L2309 622L2601 744Z" fill="#004eff" stroke="#004eff"></path><path d="M5473 4320L5819 3928L5377 4016Z" fill="#005bff" stroke="#005bff"></path><path d="M5377 4016L5819 3928L5338 3677Z" fill="#0024f9" stroke="#0024f9"></path><path d="M6491 2605L6113 2441L6080 2886Z" fill="#004eff" stroke="#004eff"></path><path d="M6178 2066L6620 1814L6193 1747Z" fill="#0047fe" stroke="#0047fe"></path><path d="M6579 1417L6220 1009L6137 1351Z" fill="#0066ff" stroke="#0066ff"></path><path d="M6491 2605L6080 2886L6516 2851Z" fill="#0615f7" stroke="#0615f7"></path><path d="M5384 0L4991 0L5285 304Z" fill="#0040fd" stroke="#0040fd"></path><path d="M5285 304L4991 0L4920 274Z" fill="#0040fd" stroke="#0040fd"></path><path d="M2294 4320L2763 4320L2647 3897Z" fill="#002efa" stroke="#002efa"></path><path d="M6516 2851L6080 2886L6517 3226Z" fill="#0047fe" stroke="#0047fe"></path><path d="M1537 2061L1851 2442L1994 2156Z" fill="#0024f9" stroke="#0024f9"></path><path d="M1851 2442L1634 2501L1971 2867Z" fill="#0060ff" stroke="#0060ff"></path><path d="M3369 0L3083 0L3159 452Z" fill="#0060ff" stroke="#0060ff"></path><path d="M1988 3173L2012 3636L2225 3261Z" fill="#0054ff" stroke="#0054ff"></path><path d="M2256 3679L2219 3962L2647 3897Z" fill="#0040fd" stroke="#0040fd"></path><path d="M1466 3214L2012 3636L1988 3173Z" fill="#0060ff" stroke="#0060ff"></path><path d="M6137 1351L6220 1009L5708 1044Z" fill="#002efa" stroke="#002efa"></path><path d="M5838 278L5384 0L5285 304Z" fill="#0066ff" stroke="#0066ff"></path><path d="M6579 1417L6137 1351L6193 1747Z" fill="#0066ff" stroke="#0066ff"></path><path d="M4993 4320L5473 4320L5377 4016Z" fill="#0054ff" stroke="#0054ff"></path><path d="M6154 3913L6136 3691L5819 3928Z" fill="#002efa" stroke="#002efa"></path><path d="M5819 3928L6136 3691L5719 3571Z" fill="#0615f7" stroke="#0615f7"></path><path d="M6517 3226L6080 2886L6074 3256Z" fill="#0047fe" stroke="#0047fe"></path><path d="M6960 2226L6620 1814L6505 2228Z" fill="#005bff" stroke="#005bff"></path><path d="M2012 3636L2219 3962L2256 3679Z" fill="#0615f7" stroke="#0615f7"></path><path d="M1486 1874L1822 1765L1451 1511Z" fill="#0066ff" stroke="#0066ff"></path><path d="M1822 1765L1537 2061L1994 2156Z" fill="#0615f7" stroke="#0615f7"></path><path d="M2325 0L2272 446L2641 430Z" fill="#0066ff" stroke="#0066ff"></path><path d="M2309 622L1941 658L2262 1130Z" fill="#0615f7" stroke="#0615f7"></path><path d="M1451 1511L1822 1765L1978 1376Z" fill="#0066ff" stroke="#0066ff"></path><path d="M6960 2226L6505 2228L6973 2503Z" fill="#004eff" stroke="#004eff"></path><path d="M6505 2228L6620 1814L6178 2066Z" fill="#0060ff" stroke="#0060ff"></path><path d="M5838 278L5285 304L5710 681Z" fill="#0615f7" stroke="#0615f7"></path><path d="M1451 1511L1978 1376L1518 1064Z" fill="#005bff" stroke="#005bff"></path><path d="M1150 2597L1476 2975L1634 2501Z" fill="#0060ff" stroke="#0060ff"></path><path d="M6136 3691L6517 3226L6074 3256Z" fill="#004eff" stroke="#004eff"></path><path d="M6973 2503L6505 2228L6491 2605Z" fill="#0024f9" stroke="#0024f9"></path><path d="M6620 1814L6579 1417L6193 1747Z" fill="#0054ff" stroke="#0054ff"></path><path d="M6142 378L5838 278L5710 681Z" fill="#0047fe" stroke="#0047fe"></path><path d="M6178 644L5710 681L6220 1009Z" fill="#0054ff" stroke="#0054ff"></path><path d="M6497 773L6178 644L6220 1009Z" fill="#0024f9" stroke="#0024f9"></path><path d="M2272 446L1941 658L2309 622Z" fill="#005bff" stroke="#005bff"></path><path d="M6129 4320L6154 3913L5819 3928Z" fill="#002efa" stroke="#002efa"></path><path d="M6136 3691L6602 3678L6517 3226Z" fill="#0060ff" stroke="#0060ff"></path><path d="M3083 0L2642 0L2641 430Z" fill="#0040fd" stroke="#0040fd"></path><path d="M2272 446L1971 288L1941 658Z" fill="#005bff" stroke="#005bff"></path><path d="M1232 2186L1634 2501L1537 2061Z" fill="#0024f9" stroke="#0024f9"></path><path d="M1634 2501L1476 2975L1971 2867Z" fill="#0040fd" stroke="#0040fd"></path><path d="M2012 3636L1901 3871L2219 3962Z" fill="#0060ff" stroke="#0060ff"></path><path d="M5473 4320L5812 4320L5819 3928Z" fill="#0040fd" stroke="#0040fd"></path><path d="M1456 3665L1901 3871L2012 3636Z" fill="#0040fd" stroke="#0040fd"></path><path d="M2219 3962L2294 4320L2647 3897Z" fill="#0024f9" stroke="#0024f9"></path><path d="M1518 1064L1978 1376L1997 1148Z" fill="#0037fc" stroke="#0037fc"></path><path d="M1486 1874L1232 2186L1537 2061Z" fill="#0047fe" stroke="#0047fe"></path><path d="M1881 4320L2294 4320L2219 3962Z" fill="#0066ff" stroke="#0066ff"></path><path d="M1476 2975L1466 3214L1988 3173Z" fill="#0040fd" stroke="#0040fd"></path><path d="M1096 2886L1466 3214L1476 2975Z" fill="#0615f7" stroke="#0615f7"></path><path d="M6857 1033L6562 1008L6579 1417Z" fill="#004eff" stroke="#004eff"></path><path d="M6579 1417L6562 1008L6220 1009Z" fill="#0047fe" stroke="#0047fe"></path><path d="M6178 644L6142 378L5710 681Z" fill="#0060ff" stroke="#0060ff"></path><path d="M6502 409L6142 378L6178 644Z" fill="#005bff" stroke="#005bff"></path><path d="M5838 278L5787 0L5384 0Z" fill="#004eff" stroke="#004eff"></path><path d="M1941 658L1518 1064L1997 1148Z" fill="#0066ff" stroke="#0066ff"></path><path d="M6053 0L5787 0L5838 278Z" fill="#0066ff" stroke="#0066ff"></path><path d="M1097 1773L1486 1874L1451 1511Z" fill="#0054ff" stroke="#0054ff"></path><path d="M1097 1773L1232 2186L1486 1874Z" fill="#0040fd" stroke="#0040fd"></path><path d="M6562 1008L6497 773L6220 1009Z" fill="#0054ff" stroke="#0054ff"></path><path d="M2642 0L2325 0L2641 430Z" fill="#0066ff" stroke="#0066ff"></path><path d="M1941 658L1490 729L1518 1064Z" fill="#004eff" stroke="#004eff"></path><path d="M2325 0L1971 288L2272 446Z" fill="#0054ff" stroke="#0054ff"></path><path d="M6973 2503L6491 2605L6516 2851Z" fill="#0047fe" stroke="#0047fe"></path><path d="M6620 1814L6912 1341L6579 1417Z" fill="#0054ff" stroke="#0054ff"></path><path d="M6562 1008L6857 1033L6497 773Z" fill="#0047fe" stroke="#0047fe"></path><path d="M6553 3983L6602 3678L6154 3913Z" fill="#0615f7" stroke="#0615f7"></path><path d="M6154 3913L6602 3678L6136 3691Z" fill="#005bff" stroke="#005bff"></path><path d="M6998 2910L6973 2503L6516 2851Z" fill="#0615f7" stroke="#0615f7"></path><path d="M6854 3290L6516 2851L6517 3226Z" fill="#0047fe" stroke="#0047fe"></path><path d="M5812 4320L6129 4320L5819 3928Z" fill="#004eff" stroke="#004eff"></path><path d="M7225 2072L6979 1877L6960 2226Z" fill="#0024f9" stroke="#0024f9"></path><path d="M6960 2226L6979 1877L6620 1814Z" fill="#0060ff" stroke="#0060ff"></path><path d="M1232 2186L1150 2597L1634 2501Z" fill="#0054ff" stroke="#0054ff"></path><path d="M6602 3678L6854 3290L6517 3226Z" fill="#0037fc" stroke="#0037fc"></path><path d="M1215 3338L1456 3665L1466 3214Z" fill="#002efa" stroke="#002efa"></path><path d="M1466 3214L1456 3665L2012 3636Z" fill="#002efa" stroke="#002efa"></path><path d="M1901 3871L1881 4320L2219 3962Z" fill="#0037fc" stroke="#0037fc"></path><path d="M6979 1877L6912 1341L6620 1814Z" fill="#0066ff" stroke="#0066ff"></path><path d="M1458 325L1490 729L1941 658Z" fill="#0047fe" stroke="#0047fe"></path><path d="M1097 1500L1097 1773L1451 1511Z" fill="#0066ff" stroke="#0066ff"></path><path d="M1232 2186L764 2135L1150 2597Z" fill="#0040fd" stroke="#0040fd"></path><path d="M6854 3290L6998 2910L6516 2851Z" fill="#0060ff" stroke="#0060ff"></path><path d="M7267 2450L7225 2072L6960 2226Z" fill="#0024f9" stroke="#0024f9"></path><path d="M6502 409L6178 644L6497 773Z" fill="#0066ff" stroke="#0066ff"></path><path d="M6494 0L6053 0L6142 378Z" fill="#0066ff" stroke="#0066ff"></path><path d="M6142 378L6053 0L5838 278Z" fill="#0047fe" stroke="#0047fe"></path><path d="M1609 4029L1881 4320L1901 3871Z" fill="#0060ff" stroke="#0060ff"></path><path d="M1097 1500L1451 1511L1197 1084Z" fill="#0066ff" stroke="#0066ff"></path><path d="M6509 4320L6553 3983L6154 3913Z" fill="#0615f7" stroke="#0615f7"></path><path d="M6602 3678L6858 3696L6854 3290Z" fill="#0066ff" stroke="#0066ff"></path><path d="M1456 3665L1609 4029L1901 3871Z" fill="#002efa" stroke="#002efa"></path><path d="M817 2886L1096 2886L1150 2597Z" fill="#002efa" stroke="#002efa"></path><path d="M1150 2597L1096 2886L1476 2975Z" fill="#0037fc" stroke="#0037fc"></path><path d="M1230 4320L1615 4320L1609 4029Z" fill="#0024f9" stroke="#0024f9"></path><path d="M6912 1341L6857 1033L6579 1417Z" fill="#0047fe" stroke="#0047fe"></path><path d="M6885 639L6502 409L6497 773Z" fill="#005bff" stroke="#005bff"></path><path d="M1096 2886L1215 3338L1466 3214Z" fill="#0066ff" stroke="#0066ff"></path><path d="M1197 1084L1451 1511L1518 1064Z" fill="#0060ff" stroke="#0060ff"></path><path d="M709 3165L1215 3338L1096 2886Z" fill="#0040fd" stroke="#0040fd"></path><path d="M1242 772L1197 1084L1518 1064Z" fill="#0024f9" stroke="#0024f9"></path><path d="M2325 0L1903 0L1971 288Z" fill="#0040fd" stroke="#0040fd"></path><path d="M1971 288L1458 325L1941 658Z" fill="#0047fe" stroke="#0047fe"></path><path d="M1490 729L1242 772L1518 1064Z" fill="#002efa" stroke="#002efa"></path><path d="M6553 3983L6858 3696L6602 3678Z" fill="#005bff" stroke="#005bff"></path><path d="M7372 3285L7395 2881L6998 2910Z" fill="#0054ff" stroke="#0054ff"></path><path d="M7267 2450L6960 2226L6973 2503Z" fill="#0060ff" stroke="#0060ff"></path><path d="M6979 1877L7209 1799L6912 1341Z" fill="#0024f9" stroke="#0024f9"></path><path d="M6912 1341L7322 992L6857 1033Z" fill="#0060ff" stroke="#0060ff"></path><path d="M7267 2450L6973 2503L6998 2910Z" fill="#005bff" stroke="#005bff"></path><path d="M7225 2072L7209 1799L6979 1877Z" fill="#0066ff" stroke="#0066ff"></path><path d="M1153 458L1242 772L1490 729Z" fill="#0066ff" stroke="#0066ff"></path><path d="M725 1856L1097 1773L790 1417Z" fill="#0615f7" stroke="#0615f7"></path><path d="M6129 4320L6509 4320L6154 3913Z" fill="#002efa" stroke="#002efa"></path><path d="M6553 3983L6852 4050L6858 3696Z" fill="#0037fc" stroke="#0037fc"></path><path d="M7395 2881L7267 2450L6998 2910Z" fill="#0040fd" stroke="#0040fd"></path><path d="M7680 1854L7350 1486L7209 1799Z" fill="#0037fc" stroke="#0037fc"></path><path d="M1096 3986L1609 4029L1456 3665Z" fill="#005bff" stroke="#005bff"></path><path d="M1609 4029L1615 4320L1881 4320Z" fill="#0615f7" stroke="#0615f7"></path><path d="M6857 1033L6885 639L6497 773Z" fill="#0066ff" stroke="#0066ff"></path><path d="M6502 409L6494 0L6142 378Z" fill="#005bff" stroke="#005bff"></path><path d="M7322 992L6885 639L6857 1033Z" fill="#005bff" stroke="#005bff"></path><path d="M1903 0L1458 325L1971 288Z" fill="#0024f9" stroke="#0024f9"></path><path d="M709 3165L1060 3582L1215 3338Z" fill="#0054ff" stroke="#0054ff"></path><path d="M1215 3338L1060 3582L1456 3665Z" fill="#0037fc" stroke="#0037fc"></path><path d="M764 2135L1232 2186L1097 1773Z" fill="#0024f9" stroke="#0024f9"></path><path d="M1097 1773L1097 1500L790 1417Z" fill="#0037fc" stroke="#0037fc"></path><path d="M725 1856L764 2135L1097 1773Z" fill="#0037fc" stroke="#0037fc"></path><path d="M6827 304L6494 0L6502 409Z" fill="#0040fd" stroke="#0040fd"></path><path d="M6509 4320L6852 4050L6553 3983Z" fill="#005bff" stroke="#005bff"></path><path d="M7372 3285L6998 2910L6854 3290Z" fill="#0054ff" stroke="#0054ff"></path><path d="M712 2586L817 2886L1150 2597Z" fill="#0066ff" stroke="#0066ff"></path><path d="M7680 1854L7209 1799L7225 2072Z" fill="#002efa" stroke="#002efa"></path><path d="M7209 1799L7350 1486L6912 1341Z" fill="#005bff" stroke="#005bff"></path><path d="M790 1417L1097 1500L1197 1084Z" fill="#002efa" stroke="#002efa"></path><path d="M764 2135L712 2586L1150 2597Z" fill="#0040fd" stroke="#0040fd"></path><path d="M449 2580L712 2586L764 2135Z" fill="#0054ff" stroke="#0054ff"></path><path d="M845 3905L1096 3986L1060 3582Z" fill="#0066ff" stroke="#0066ff"></path><path d="M7266 458L6827 304L6885 639Z" fill="#0047fe" stroke="#0047fe"></path><path d="M6885 639L6827 304L6502 409Z" fill="#0066ff" stroke="#0066ff"></path><path d="M7372 3285L6854 3290L7388 3511Z" fill="#004eff" stroke="#004eff"></path><path d="M7267 2450L7680 2198L7225 2072Z" fill="#0037fc" stroke="#0037fc"></path><path d="M817 1017L790 1417L1197 1084Z" fill="#0060ff" stroke="#0060ff"></path><path d="M817 1017L1197 1084L1242 772Z" fill="#0024f9" stroke="#0024f9"></path><path d="M1903 0L1497 0L1458 325Z" fill="#0615f7" stroke="#0615f7"></path><path d="M1458 325L1153 458L1490 729Z" fill="#0040fd" stroke="#0040fd"></path><path d="M1098 0L1153 458L1458 325Z" fill="#0054ff" stroke="#0054ff"></path><path d="M709 3165L1096 2886L817 2886Z" fill="#0040fd" stroke="#0040fd"></path><path d="M1060 3582L1096 3986L1456 3665Z" fill="#0066ff" stroke="#0066ff"></path><path d="M6509 4320L6836 4320L6852 4050Z" fill="#0037fc" stroke="#0037fc"></path><path d="M7388 3511L6854 3290L6858 3696Z" fill="#0054ff" stroke="#0054ff"></path><path d="M7388 3511L6858 3696L7391 3923Z" fill="#0060ff" stroke="#0060ff"></path><path d="M766 655L817 1017L1242 772Z" fill="#002efa" stroke="#002efa"></path><path d="M465 1781L764 2135L725 1856Z" fill="#004eff" stroke="#004eff"></path><path d="M414 2930L709 3165L817 2886Z" fill="#0060ff" stroke="#0060ff"></path><path d="M7350 1486L7322 992L6912 1341Z" fill="#0037fc" stroke="#0037fc"></path><path d="M723 4320L1230 4320L1096 3986Z" fill="#0040fd" stroke="#0040fd"></path><path d="M1096 3986L1230 4320L1609 4029Z" fill="#0060ff" stroke="#0060ff"></path><path d="M7391 3923L6858 3696L6852 4050Z" fill="#0060ff" stroke="#0060ff"></path><path d="M7680 2445L7267 2450L7395 2881Z" fill="#0024f9" stroke="#0024f9"></path><path d="M7223 0L6843 0L6827 304Z" fill="#005bff" stroke="#005bff"></path><path d="M6827 304L6843 0L6494 0Z" fill="#0037fc" stroke="#0037fc"></path><path d="M7680 2445L7395 2881L7680 2918Z" fill="#004eff" stroke="#004eff"></path><path d="M7680 2445L7680 2198L7267 2450Z" fill="#0047fe" stroke="#0047fe"></path><path d="M7350 1486L7680 1126L7322 992Z" fill="#0615f7" stroke="#0615f7"></path><path d="M7680 2918L7395 2881L7680 3196Z" fill="#005bff" stroke="#005bff"></path><path d="M709 3165L710 3605L1060 3582Z" fill="#002efa" stroke="#002efa"></path><path d="M710 3605L845 3905L1060 3582Z" fill="#0024f9" stroke="#0024f9"></path><path d="M7680 764L7336 675L7322 992Z" fill="#0054ff" stroke="#0054ff"></path><path d="M7322 992L7336 675L6885 639Z" fill="#002efa" stroke="#002efa"></path><path d="M7680 2198L7680 1854L7225 2072Z" fill="#0040fd" stroke="#0040fd"></path><path d="M712 2586L414 2930L817 2886Z" fill="#0066ff" stroke="#0066ff"></path><path d="M709 3165L405 3280L710 3605Z" fill="#002efa" stroke="#002efa"></path><path d="M300 2237L449 2580L764 2135Z" fill="#0024f9" stroke="#0024f9"></path><path d="M465 1781L725 1856L464 1539Z" fill="#0024f9" stroke="#0024f9"></path><path d="M464 1539L725 1856L790 1417Z" fill="#004eff" stroke="#004eff"></path><path d="M7336 675L7266 458L6885 639Z" fill="#005bff" stroke="#005bff"></path><path d="M7680 3196L7395 2881L7372 3285Z" fill="#0066ff" stroke="#0066ff"></path><path d="M1153 458L766 655L1242 772Z" fill="#0040fd" stroke="#0040fd"></path><path d="M444 1074L464 1539L790 1417Z" fill="#0615f7" stroke="#0615f7"></path><path d="M767 403L766 655L1153 458Z" fill="#0060ff" stroke="#0060ff"></path><path d="M444 1074L790 1417L817 1017Z" fill="#0024f9" stroke="#0024f9"></path><path d="M0 2970L414 2930L449 2580Z" fill="#0037fc" stroke="#0037fc"></path><path d="M7680 1854L7680 1391L7350 1486Z" fill="#005bff" stroke="#005bff"></path><path d="M7336 675L7680 396L7266 458Z" fill="#0060ff" stroke="#0060ff"></path><path d="M7198 4320L7391 3923L6852 4050Z" fill="#0615f7" stroke="#0615f7"></path><path d="M7680 3546L7680 3196L7372 3285Z" fill="#0024f9" stroke="#0024f9"></path><path d="M300 2237L764 2135L465 1781Z" fill="#004eff" stroke="#004eff"></path><path d="M449 2580L414 2930L712 2586Z" fill="#0037fc" stroke="#0037fc"></path><path d="M7680 3546L7372 3285L7388 3511Z" fill="#0024f9" stroke="#0024f9"></path><path d="M1497 0L1098 0L1458 325Z" fill="#0040fd" stroke="#0040fd"></path><path d="M6836 4320L7198 4320L6852 4050Z" fill="#004eff" stroke="#004eff"></path><path d="M0 2120L300 2237L465 1781Z" fill="#0615f7" stroke="#0615f7"></path><path d="M7680 1391L7680 1126L7350 1486Z" fill="#0054ff" stroke="#0054ff"></path><path d="M1098 0L767 403L1153 458Z" fill="#005bff" stroke="#005bff"></path><path d="M766 655L444 1074L817 1017Z" fill="#0047fe" stroke="#0047fe"></path><path d="M0 3214L405 3280L414 2930Z" fill="#0054ff" stroke="#0054ff"></path><path d="M414 2930L405 3280L709 3165Z" fill="#0024f9" stroke="#0024f9"></path><path d="M710 3605L376 3964L845 3905Z" fill="#005bff" stroke="#005bff"></path><path d="M346 670L444 1074L766 655Z" fill="#002efa" stroke="#002efa"></path><path d="M0 1748L0 2120L465 1781Z" fill="#005bff" stroke="#005bff"></path><path d="M7680 3925L7680 3546L7391 3923Z" fill="#0054ff" stroke="#0054ff"></path><path d="M7391 3923L7680 3546L7388 3511Z" fill="#0054ff" stroke="#0054ff"></path><path d="M7680 396L7223 0L7266 458Z" fill="#004eff" stroke="#004eff"></path><path d="M7266 458L7223 0L6827 304Z" fill="#0066ff" stroke="#0066ff"></path><path d="M376 3964L439 3627L0 3610Z" fill="#0037fc" stroke="#0037fc"></path><path d="M405 3280L439 3627L710 3605Z" fill="#0066ff" stroke="#0066ff"></path><path d="M845 3905L723 4320L1096 3986Z" fill="#0066ff" stroke="#0066ff"></path><path d="M7680 1126L7680 764L7322 992Z" fill="#0066ff" stroke="#0066ff"></path><path d="M376 3964L723 4320L845 3905Z" fill="#0060ff" stroke="#0060ff"></path><path d="M1098 0L818 0L767 403Z" fill="#0047fe" stroke="#0047fe"></path><path d="M767 403L346 670L766 655Z" fill="#0047fe" stroke="#0047fe"></path><path d="M7680 4320L7680 3925L7391 3923Z" fill="#0024f9" stroke="#0024f9"></path><path d="M309 296L346 670L767 403Z" fill="#0054ff" stroke="#0054ff"></path><path d="M0 1748L465 1781L464 1539Z" fill="#0066ff" stroke="#0066ff"></path><path d="M7680 764L7680 396L7336 675Z" fill="#002efa" stroke="#002efa"></path><path d="M0 3610L439 3627L405 3280Z" fill="#0037fc" stroke="#0037fc"></path><path d="M439 3627L376 3964L710 3605Z" fill="#005bff" stroke="#005bff"></path><path d="M0 1748L464 1539L0 1434Z" fill="#0037fc" stroke="#0037fc"></path><path d="M300 2237L0 2474L449 2580Z" fill="#002efa" stroke="#002efa"></path><path d="M0 2120L0 2474L300 2237Z" fill="#0024f9" stroke="#0024f9"></path><path d="M0 1434L464 1539L444 1074Z" fill="#0054ff" stroke="#0054ff"></path><path d="M0 2474L0 2970L449 2580Z" fill="#0024f9" stroke="#0024f9"></path><path d="M0 1089L0 1434L444 1074Z" fill="#0615f7" stroke="#0615f7"></path><path d="M0 4320L465 4320L376 3964Z" fill="#004eff" stroke="#004eff"></path><path d="M376 3964L465 4320L723 4320Z" fill="#004eff" stroke="#004eff"></path><path d="M7198 4320L7680 4320L7391 3923Z" fill="#005bff" stroke="#005bff"></path><path d="M0 2970L0 3214L414 2930Z" fill="#004eff" stroke="#004eff"></path><path d="M0 804L0 1089L444 1074Z" fill="#0060ff" stroke="#0060ff"></path><path d="M0 804L444 1074L346 670Z" fill="#0060ff" stroke="#0060ff"></path><path d="M448 0L309 296L767 403Z" fill="#0047fe" stroke="#0047fe"></path><path d="M7680 396L7680 0L7223 0Z" fill="#005bff" stroke="#005bff"></path><path d="M818 0L448 0L767 403Z" fill="#002efa" stroke="#002efa"></path><path d="M0 3214L0 3610L405 3280Z" fill="#0047fe" stroke="#0047fe"></path><path d="M0 426L346 670L309 296Z" fill="#0054ff" stroke="#0054ff"></path><path d="M0 426L0 804L346 670Z" fill="#004eff" stroke="#004eff"></path><path d="M0 3610L0 3912L376 3964Z" fill="#0615f7" stroke="#0615f7"></path><path d="M0 0L0 426L309 296Z" fill="#0040fd" stroke="#0040fd"></path><path d="M0 3912L0 4320L376 3964Z" fill="#0047fe" stroke="#0047fe"></path><path d="M448 0L0 0L309 296Z" fill="#0615f7" stroke="#0615f7"></path></g></svg>