<svg id="visual" viewBox="0 0 7680 4320" width="7680" height="4320" xmlns="http://www.w3.org/2000/svg" xmlns:xlink="http://www.w3.org/1999/xlink" version="1.1"><path d="M0 347L334 347L334 865L668 865L668 217L1002 217L1002 0L1336 0L1336 606L1670 606L1670 519L2003 519L2003 44L2337 44L2337 390L2671 390L2671 995L3005 995L3005 865L3339 865L3339 735L3673 735L3673 347L4007 347L4007 347L4341 347L4341 519L4675 519L4675 44L5009 44L5009 390L5343 390L5343 908L5677 908L5677 433L6010 433L6010 735L6344 735L6344 735L6678 735L6678 519L7012 519L7012 260L7346 260L7346 0L7680 0L7680 433L7680 0L7680 0L7346 0L7346 0L7012 0L7012 0L6678 0L6678 0L6344 0L6344 0L6010 0L6010 0L5677 0L5677 0L5343 0L5343 0L5009 0L5009 0L4675 0L4675 0L4341 0L4341 0L4007 0L4007 0L3673 0L3673 0L3339 0L3339 0L3005 0L3005 0L2671 0L2671 0L2337 0L2337 0L2003 0L2003 0L1670 0L1670 0L1336 0L1336 0L1002 0L1002 0L668 0L668 0L334 0L334 0L0 0Z" fill="#18118c"></path><path d="M0 347L334 347L334 995L668 995L668 347L1002 347L1002 44L1336 44L1336 865L1670 865L1670 908L2003 908L2003 87L2337 87L2337 692L2671 692L2671 995L3005 995L3005 1081L3339 1081L3339 995L3673 995L3673 606L4007 606L4007 433L4341 433L4341 951L4675 951L4675 174L5009 174L5009 692L5343 692L5343 908L5677 908L5677 779L6010 779L6010 779L6344 779L6344 735L6678 735L6678 735L7012 735L7012 606L7346 606L7346 44L7680 44L7680 476L7680 431L7680 0L7346 0L7346 258L7012 258L7012 517L6678 517L6678 733L6344 733L6344 733L6010 733L6010 431L5677 431L5677 906L5343 906L5343 388L5009 388L5009 42L4675 42L4675 517L4341 517L4341 345L4007 345L4007 345L3673 345L3673 733L3339 733L3339 863L3005 863L3005 993L2671 993L2671 388L2337 388L2337 42L2003 42L2003 517L1670 517L1670 604L1336 604L1336 0L1002 0L1002 215L668 215L668 863L334 863L334 345L0 345Z" fill="#191294"></path><path d="M0 692L334 692L334 1081L668 1081L668 347L1002 347L1002 44L1336 44L1336 1254L1670 1254L1670 908L2003 908L2003 433L2337 433L2337 692L2671 692L2671 1297L3005 1297L3005 1211L3339 1211L3339 1167L3673 1167L3673 692L4007 692L4007 563L4341 563L4341 1038L4675 1038L4675 303L5009 303L5009 908L5343 908L5343 951L5677 951L5677 1124L6010 1124L6010 779L6344 779L6344 865L6678 865L6678 908L7012 908L7012 951L7346 951L7346 390L7680 390L7680 779L7680 474L7680 42L7346 42L7346 604L7012 604L7012 733L6678 733L6678 733L6344 733L6344 777L6010 777L6010 777L5677 777L5677 906L5343 906L5343 690L5009 690L5009 172L4675 172L4675 949L4341 949L4341 431L4007 431L4007 604L3673 604L3673 993L3339 993L3339 1079L3005 1079L3005 993L2671 993L2671 690L2337 690L2337 85L2003 85L2003 906L1670 906L1670 863L1336 863L1336 42L1002 42L1002 345L668 345L668 993L334 993L334 345L0 345Z" fill="#1b139c"></path><path d="M0 692L334 692L334 1340L668 1340L668 606L1002 606L1002 390L1336 390L1336 1470L1670 1470L1670 1167L2003 1167L2003 779L2337 779L2337 865L2671 865L2671 1427L3005 1427L3005 1599L3339 1599L3339 1211L3673 1211L3673 1038L4007 1038L4007 908L4341 908L4341 1038L4675 1038L4675 476L5009 476L5009 951L5343 951L5343 1081L5677 1081L5677 1427L6010 1427L6010 1167L6344 1167L6344 1254L6678 1254L6678 908L7012 908L7012 1340L7346 1340L7346 433L7680 433L7680 779L7680 777L7680 388L7346 388L7346 949L7012 949L7012 906L6678 906L6678 863L6344 863L6344 777L6010 777L6010 1122L5677 1122L5677 949L5343 949L5343 906L5009 906L5009 301L4675 301L4675 1036L4341 1036L4341 561L4007 561L4007 690L3673 690L3673 1165L3339 1165L3339 1209L3005 1209L3005 1295L2671 1295L2671 690L2337 690L2337 431L2003 431L2003 906L1670 906L1670 1252L1336 1252L1336 42L1002 42L1002 345L668 345L668 1079L334 1079L334 690L0 690Z" fill="#1c13a4"></path><path d="M0 1340L334 1340L334 1340L668 1340L668 1038L1002 1038L1002 606L1336 606L1336 2075L1670 2075L1670 1427L2003 1427L2003 822L2337 822L2337 1599L2671 1599L2671 1599L3005 1599L3005 1815L3339 1815L3339 1859L3673 1859L3673 1124L4007 1124L4007 1383L4341 1383L4341 1081L4675 1081L4675 519L5009 519L5009 995L5343 995L5343 1340L5677 1340L5677 1815L6010 1815L6010 1772L6344 1772L6344 1729L6678 1729L6678 1124L7012 1124L7012 1772L7346 1772L7346 649L7680 649L7680 1383L7680 777L7680 431L7346 431L7346 1338L7012 1338L7012 906L6678 906L6678 1252L6344 1252L6344 1165L6010 1165L6010 1425L5677 1425L5677 1079L5343 1079L5343 949L5009 949L5009 474L4675 474L4675 1036L4341 1036L4341 906L4007 906L4007 1036L3673 1036L3673 1209L3339 1209L3339 1597L3005 1597L3005 1425L2671 1425L2671 863L2337 863L2337 777L2003 777L2003 1165L1670 1165L1670 1468L1336 1468L1336 388L1002 388L1002 604L668 604L668 1338L334 1338L334 690L0 690Z" fill="#1e14ac"></path><path d="M0 1772L334 1772L334 1815L668 1815L668 1167L1002 1167L1002 822L1336 822L1336 2247L1670 2247L1670 1988L2003 1988L2003 865L2337 865L2337 1686L2671 1686L2671 1902L3005 1902L3005 2118L3339 2118L3339 1902L3673 1902L3673 1599L4007 1599L4007 1599L4341 1599L4341 1383L4675 1383L4675 692L5009 692L5009 1340L5343 1340L5343 1859L5677 1859L5677 2161L6010 2161L6010 2118L6344 2118L6344 1902L6678 1902L6678 1599L7012 1599L7012 1859L7346 1859L7346 1211L7680 1211L7680 1470L7680 1381L7680 647L7346 647L7346 1770L7012 1770L7012 1122L6678 1122L6678 1727L6344 1727L6344 1770L6010 1770L6010 1813L5677 1813L5677 1338L5343 1338L5343 993L5009 993L5009 517L4675 517L4675 1079L4341 1079L4341 1381L4007 1381L4007 1122L3673 1122L3673 1857L3339 1857L3339 1813L3005 1813L3005 1597L2671 1597L2671 1597L2337 1597L2337 820L2003 820L2003 1425L1670 1425L1670 2073L1336 2073L1336 604L1002 604L1002 1036L668 1036L668 1338L334 1338L334 1338L0 1338Z" fill="#1f15b4"></path><path d="M0 1859L334 1859L334 1859L668 1859L668 1556L1002 1556L1002 951L1336 951L1336 2291L1670 2291L1670 2247L2003 2247L2003 995L2337 995L2337 1945L2671 1945L2671 1902L3005 1902L3005 2463L3339 2463L3339 2247L3673 2247L3673 1859L4007 1859L4007 1815L4341 1815L4341 1729L4675 1729L4675 995L5009 995L5009 1427L5343 1427L5343 2204L5677 2204L5677 2507L6010 2507L6010 2161L6344 2161L6344 2247L6678 2247L6678 1902L7012 1902L7012 2031L7346 2031L7346 1383L7680 1383L7680 1470L7680 1468L7680 1209L7346 1209L7346 1857L7012 1857L7012 1597L6678 1597L6678 1900L6344 1900L6344 2116L6010 2116L6010 2159L5677 2159L5677 1857L5343 1857L5343 1338L5009 1338L5009 690L4675 690L4675 1381L4341 1381L4341 1597L4007 1597L4007 1597L3673 1597L3673 1900L3339 1900L3339 2116L3005 2116L3005 1900L2671 1900L2671 1684L2337 1684L2337 863L2003 863L2003 1986L1670 1986L1670 2245L1336 2245L1336 820L1002 820L1002 1165L668 1165L668 1813L334 1813L334 1770L0 1770Z" fill="#2115bc"></path><path d="M0 1945L334 1945L334 1988L668 1988L668 1556L1002 1556L1002 1124L1336 1124L1336 2550L1670 2550L1670 2334L2003 2334L2003 1167L2337 1167L2337 2031L2671 2031L2671 2161L3005 2161L3005 2679L3339 2679L3339 2463L3673 2463L3673 1859L4007 1859L4007 1859L4341 1859L4341 1772L4675 1772L4675 1124L5009 1124L5009 1470L5343 1470L5343 2463L5677 2463L5677 2507L6010 2507L6010 2161L6344 2161L6344 2334L6678 2334L6678 2031L7012 2031L7012 2075L7346 2075L7346 1643L7680 1643L7680 1815L7680 1468L7680 1381L7346 1381L7346 2029L7012 2029L7012 1900L6678 1900L6678 2245L6344 2245L6344 2159L6010 2159L6010 2505L5677 2505L5677 2202L5343 2202L5343 1425L5009 1425L5009 993L4675 993L4675 1727L4341 1727L4341 1813L4007 1813L4007 1857L3673 1857L3673 2245L3339 2245L3339 2461L3005 2461L3005 1900L2671 1900L2671 1943L2337 1943L2337 993L2003 993L2003 2245L1670 2245L1670 2289L1336 2289L1336 949L1002 949L1002 1554L668 1554L668 1857L334 1857L334 1857L0 1857Z" fill="#2316c4"></path><path d="M0 2118L334 2118L334 2550L668 2550L668 3241L1002 3241L1002 2291L1336 2291L1336 3889L1670 3889L1670 3241L2003 3241L2003 1902L2337 1902L2337 2766L2671 2766L2671 3025L3005 3025L3005 3587L3339 3587L3339 2766L3673 2766L3673 2593L4007 2593L4007 2982L4341 2982L4341 2939L4675 2939L4675 2377L5009 2377L5009 2291L5343 2291L5343 2636L5677 2636L5677 2593L6010 2593L6010 2550L6344 2550L6344 3327L6678 3327L6678 2118L7012 2118L7012 2204L7346 2204L7346 2161L7680 2161L7680 2075L7680 1813L7680 1641L7346 1641L7346 2073L7012 2073L7012 2029L6678 2029L6678 2332L6344 2332L6344 2159L6010 2159L6010 2505L5677 2505L5677 2461L5343 2461L5343 1468L5009 1468L5009 1122L4675 1122L4675 1770L4341 1770L4341 1857L4007 1857L4007 1857L3673 1857L3673 2461L3339 2461L3339 2677L3005 2677L3005 2159L2671 2159L2671 2029L2337 2029L2337 1165L2003 1165L2003 2332L1670 2332L1670 2548L1336 2548L1336 1122L1002 1122L1002 1554L668 1554L668 1986L334 1986L334 1943L0 1943Z" fill="#2517cc"></path><path d="M0 3759L334 3759L334 3111L668 3111L668 3414L1002 3414L1002 4019L1336 4019L1336 3932L1670 3932L1670 3587L2003 3587L2003 3500L2337 3500L2337 3543L2671 3543L2671 3284L3005 3284L3005 3932L3339 3932L3339 3803L3673 3803L3673 3414L4007 3414L4007 3587L4341 3587L4341 3241L4675 3241L4675 3241L5009 3241L5009 4062L5343 4062L5343 3457L5677 3457L5677 3716L6010 3716L6010 3371L6344 3371L6344 3500L6678 3500L6678 3241L7012 3241L7012 3371L7346 3371L7346 3975L7680 3975L7680 3414L7680 2073L7680 2159L7346 2159L7346 2202L7012 2202L7012 2116L6678 2116L6678 3325L6344 3325L6344 2548L6010 2548L6010 2591L5677 2591L5677 2634L5343 2634L5343 2289L5009 2289L5009 2375L4675 2375L4675 2937L4341 2937L4341 2980L4007 2980L4007 2591L3673 2591L3673 2764L3339 2764L3339 3585L3005 3585L3005 3023L2671 3023L2671 2764L2337 2764L2337 1900L2003 1900L2003 3239L1670 3239L1670 3887L1336 3887L1336 2289L1002 2289L1002 3239L668 3239L668 2548L334 2548L334 2116L0 2116Z" fill="#2717d4"></path><path d="M0 3932L334 3932L334 3457L668 3457L668 3500L1002 3500L1002 4321L1336 4321L1336 4235L1670 4235L1670 3803L2003 3803L2003 3975L2337 3975L2337 3846L2671 3846L2671 3803L3005 3803L3005 4321L3339 4321L3339 3932L3673 3932L3673 3889L4007 3889L4007 4062L4341 4062L4341 3500L4675 3500L4675 3759L5009 3759L5009 4321L5343 4321L5343 3803L5677 3803L5677 4062L6010 4062L6010 3846L6344 3846L6344 3846L6678 3846L6678 3673L7012 3673L7012 3759L7346 3759L7346 4019L7680 4019L7680 3673L7680 3412L7680 3973L7346 3973L7346 3369L7012 3369L7012 3239L6678 3239L6678 3498L6344 3498L6344 3369L6010 3369L6010 3714L5677 3714L5677 3455L5343 3455L5343 4060L5009 4060L5009 3239L4675 3239L4675 3239L4341 3239L4341 3585L4007 3585L4007 3412L3673 3412L3673 3801L3339 3801L3339 3930L3005 3930L3005 3282L2671 3282L2671 3541L2337 3541L2337 3498L2003 3498L2003 3585L1670 3585L1670 3930L1336 3930L1336 4017L1002 4017L1002 3412L668 3412L668 3109L334 3109L334 3757L0 3757Z" fill="#2918dd"></path><path d="M0 4321L334 4321L334 4321L668 4321L668 4321L1002 4321L1002 4321L1336 4321L1336 4321L1670 4321L1670 4321L2003 4321L2003 4321L2337 4321L2337 4321L2671 4321L2671 4321L3005 4321L3005 4321L3339 4321L3339 4321L3673 4321L3673 4321L4007 4321L4007 4321L4341 4321L4341 4321L4675 4321L4675 4321L5009 4321L5009 4321L5343 4321L5343 4321L5677 4321L5677 4321L6010 4321L6010 4321L6344 4321L6344 4321L6678 4321L6678 4321L7012 4321L7012 4321L7346 4321L7346 4321L7680 4321L7680 4321L7680 3671L7680 4017L7346 4017L7346 3757L7012 3757L7012 3671L6678 3671L6678 3844L6344 3844L6344 3844L6010 3844L6010 4060L5677 4060L5677 3801L5343 3801L5343 4319L5009 4319L5009 3757L4675 3757L4675 3498L4341 3498L4341 4060L4007 4060L4007 3887L3673 3887L3673 3930L3339 3930L3339 4319L3005 4319L3005 3801L2671 3801L2671 3844L2337 3844L2337 3973L2003 3973L2003 3801L1670 3801L1670 4233L1336 4233L1336 4319L1002 4319L1002 3498L668 3498L668 3455L334 3455L334 3930L0 3930Z" fill="#2b18e5"></path></svg>